<svg width="16" height="17" viewBox="0 0 16 17" fill="none" xmlns="http://www.w3.org/2000/svg">
<circle cx="8" cy="9" r="7.5" stroke="#FF8A1F"/>
<circle cx="8" cy="9" r="5.5" stroke="#FF8A1F"/>
<path d="M5.576 13V4.6H8.996C9.388 4.744 9.736 4.996 10.04 5.356C10.344 5.716 10.496 6.152 10.496 6.664C10.496 7.568 10.2 8.2 9.608 8.56V8.608C10.344 9.016 10.712 9.656 10.712 10.528C10.712 11.528 10.204 12.352 9.188 13H5.576ZM7.208 8.068H8.396C8.748 7.852 8.924 7.524 8.924 7.084C8.924 6.644 8.76 6.296 8.432 6.04H7.208V8.068ZM7.208 11.608H8.444C8.588 11.504 8.716 11.34 8.828 11.116C8.948 10.892 9.008 10.668 9.008 10.444C9.008 10.22 8.96 10.016 8.864 9.832C8.768 9.648 8.648 9.512 8.504 9.424H7.208V11.608Z" fill="black"/>
</svg>
