<svg width="167" height="74" viewBox="0 0 167 74" fill="none" xmlns="http://www.w3.org/2000/svg">
<path d="M71.92 43V15H83.32C84.6267 15.48 85.7867 16.32 86.8 17.52C87.8133 18.72 88.32 20.1733 88.32 21.88C88.32 24.8933 87.3333 27 85.36 28.2V28.36C87.8133 29.72 89.04 31.8533 89.04 34.76C89.04 38.0933 87.3467 40.84 83.96 43H71.92ZM77.36 26.56H81.32C82.4933 25.84 83.08 24.7467 83.08 23.28C83.08 21.8133 82.5333 20.6533 81.44 19.8H77.36V26.56ZM77.36 38.36H81.48C81.96 38.0133 82.3867 37.4667 82.76 36.72C83.16 35.9733 83.36 35.2267 83.36 34.48C83.36 33.7333 83.2 33.0533 82.88 32.44C82.56 31.8267 82.16 31.3733 81.68 31.08H77.36V38.36ZM91.9591 43V15H97.4391V43H91.9591ZM101.295 43V15H106.775V26.8H106.975L111.975 15H117.615L111.775 28.36L117.895 43H111.815L107.055 30.76H106.775V43H101.295ZM119.811 43V15H134.171V19.8H125.291V26.48H133.211V31.12H125.291V38.36H134.331V43H119.811Z" fill="black"/>
<path d="M75.52 50.78H78.16V58.9H79.56C80 58.1933 80.22 57.22 80.22 55.98V50.78H82.88V56.1C82.88 58.3533 82.2533 59.9867 81 61H79.34C78.3133 61 77.4667 60.6933 76.8 60.08C76.1333 60.6933 75.3133 61 74.34 61H72.68C71.4267 60.12 70.8 58.4867 70.8 56.1V50.78H73.46V56.1C73.46 57.2867 73.6733 58.22 74.1 58.9H75.52V50.78ZM84.5319 61V50.78H87.1719V61H84.5319ZM84.5319 47H87.1719V49.7H84.5319V47ZM89.4873 56.54V52.88H88.1073V50.78H89.4873V48H92.1473V50.78H93.7873V52.88H92.1473V57.18C92.1473 57.9933 92.2873 58.5667 92.5673 58.9H93.7873V61H90.9473C90.2407 60.3467 89.814 59.64 89.6673 58.88C89.5473 58.24 89.4873 57.46 89.4873 56.54ZM99.7778 50.78H101.678C102.264 51.5267 102.664 52.2733 102.878 53.02C103.091 53.7667 103.198 54.7 103.198 55.82V61H100.538V55.62C100.538 54.3533 100.364 53.44 100.018 52.88H97.7778V61H95.1178V47H97.7778V51.5C98.0711 51.2333 98.3445 51.0467 98.5978 50.94C98.8645 50.8333 99.2578 50.78 99.7778 50.78ZM112.488 50.78H113.908L114.408 51.48C114.688 51.2267 114.954 51.0467 115.208 50.94C115.474 50.8333 115.868 50.78 116.388 50.78H118.608C119.194 51.5267 119.594 52.2733 119.808 53.02C120.021 53.7667 120.128 54.7 120.128 55.82V61H117.467V55.62C117.467 54.3933 117.281 53.48 116.908 52.88H114.988C115.281 53.4533 115.428 54.2333 115.428 55.22V61H112.768V55.62C112.768 54.3533 112.594 53.44 112.248 52.88H110.708V61H108.048V50.78H110.127L110.488 51.5C110.781 51.2333 111.054 51.0467 111.308 50.94C111.574 50.8333 111.968 50.78 112.488 50.78ZM126.378 52.88H124.878C124.678 53.12 124.512 53.4533 124.378 53.88C124.258 54.3067 124.198 54.72 124.198 55.12H127.058C127.085 54.72 127.032 54.3067 126.898 53.88C126.765 53.44 126.592 53.1067 126.378 52.88ZM129.098 58.9V61H124.018C123.085 60.3733 122.425 59.6 122.038 58.68C121.665 57.7467 121.478 56.8067 121.478 55.86C121.478 53.6733 122.305 51.98 123.958 50.78H127.198C128.092 51.4333 128.698 52.1267 129.018 52.86C129.338 53.5933 129.498 54.3333 129.498 55.08C129.498 55.8267 129.438 56.4667 129.318 57H124.338C124.378 57.3067 124.492 57.66 124.678 58.06C124.878 58.4467 125.092 58.7267 125.318 58.9H129.098ZM131.08 58.3H133.32V61H131.08V58.3ZM133.62 47L133.32 53.4V56.18H131.08V53.4L130.78 47H133.62Z" fill="black"/>
<path fill-rule="evenodd" clip-rule="evenodd" d="M28.8969 7.59022C19.9547 9.36758 11.9743 15.7524 7.81259 24.459C-0.418655 41.6796 10.2295 62.5818 29.181 66.4035C49.9985 70.6012 68.5989 51.9888 64.4039 31.1578C61.1214 14.8589 45.2682 4.33666 28.8969 7.59022ZM27.771 9.6359C10.2555 14.226 1.44694 34.8234 10.2364 50.6385C22.5504 72.7947 56.1156 68.5619 62.3773 44.063C67.6941 23.2612 48.5292 4.19611 27.771 9.6359ZM29.575 11.2371C9.14965 15.6694 1.73834 40.7624 16.4939 55.5276C31.2969 70.3402 56.4668 62.7894 60.778 42.2427C64.6296 23.8845 47.8999 7.26075 29.575 11.2371ZM29.2102 13.0095C10.6368 17.5129 4.13429 40.8067 17.67 54.3507C33.1096 69.8008 59.6398 58.8299 59.6398 36.995C59.6398 21.2146 44.5208 9.29731 29.2102 13.0095ZM34.3058 14.675C33.8361 15.4362 34.8927 16.3087 35.522 15.6789C36.0483 15.1524 35.719 14.179 35.0145 14.179C34.7933 14.179 34.4745 14.4022 34.3058 14.675ZM26.8867 16.2567C27.0929 17.2478 27.9023 17.3085 28.0874 16.3465C28.1832 15.8469 27.9598 15.548 27.4901 15.548C27.0518 15.548 26.8005 15.8432 26.8867 16.2567ZM41.9355 16.2567C42.1417 17.2478 42.9511 17.3085 43.1363 16.3465C43.232 15.8469 43.0086 15.548 42.5389 15.548C42.1006 15.548 41.8494 15.8432 41.9355 16.2567ZM34.3058 18.3256C33.8361 19.0867 34.8927 19.9592 35.522 19.3295C36.0483 18.8029 35.719 17.8296 35.0145 17.8296C34.7933 17.8296 34.4745 18.0527 34.3058 18.3256ZM20.4217 19.6549C19.8831 19.988 19.8608 20.1888 20.3113 20.6396C20.7518 21.0804 20.9995 21.0845 21.4249 20.6588C22.1646 19.9186 21.336 19.0895 20.4217 19.6549ZM28.1741 19.883C28.1741 20.2595 28.4819 20.5675 28.8581 20.5675C29.2343 20.5675 29.5422 20.2595 29.5422 19.883C29.5422 19.5066 29.2343 19.1985 28.8581 19.1985C28.4819 19.1985 28.1741 19.5066 28.1741 19.883ZM40.4868 19.883C40.4868 20.2595 40.7946 20.5675 41.1708 20.5675C41.547 20.5675 41.8548 20.2595 41.8548 19.883C41.8548 19.5066 41.547 19.1985 41.1708 19.1985C40.7946 19.1985 40.4868 19.5066 40.4868 19.883ZM48.4302 19.7146C48.0417 20.3439 48.9342 21.2118 49.5676 20.8203C49.8403 20.6515 50.0633 20.3425 50.0633 20.1331C50.0633 19.5262 48.754 19.1903 48.4302 19.7146ZM34.3058 21.9762C33.8361 22.7373 34.8927 23.6098 35.522 22.9801C36.0483 22.4535 35.719 21.4801 35.0145 21.4801C34.7933 21.4801 34.4745 21.7033 34.3058 21.9762ZM22.5623 22.6844C22.1368 23.1106 22.6507 23.7617 23.4127 23.7617C23.7744 23.7617 24.0699 23.4537 24.0699 23.0773C24.0699 22.39 23.1072 22.1391 22.5623 22.6844ZM29.2895 22.8888C28.8198 23.65 29.8764 24.5224 30.5057 23.8927C31.032 23.3661 30.7027 22.3928 29.9982 22.3928C29.777 22.3928 29.4583 22.6159 29.2895 22.8888ZM39.3221 22.8888C38.8524 23.65 39.909 24.5224 40.5383 23.8927C41.0645 23.3661 40.7353 22.3928 40.0307 22.3928C39.8096 22.3928 39.4908 22.6159 39.3221 22.8888ZM45.9591 23.0773C45.9591 23.5473 46.2577 23.7709 46.7571 23.675C47.7184 23.4898 47.6577 22.6798 46.6673 22.4736C46.2541 22.3873 45.9591 22.6387 45.9591 23.0773ZM15.4054 26.0433C15.4054 26.6315 15.6361 26.9551 15.9754 26.8419C16.2892 26.7374 16.5455 26.3778 16.5455 26.0433C16.5455 25.7089 16.2892 25.3493 15.9754 25.2448C15.6361 25.1316 15.4054 25.4552 15.4054 26.0433ZM24.9819 25.8152C24.9819 26.1917 25.2897 26.4997 25.666 26.4997C26.0422 26.4997 26.35 26.1917 26.35 25.8152C26.35 25.4387 26.0422 25.1307 25.666 25.1307C25.2897 25.1307 24.9819 25.4387 24.9819 25.8152ZM34.3058 25.6267C33.8361 26.3879 34.8927 27.2604 35.522 26.6306C36.0483 26.104 35.719 25.1307 35.0145 25.1307C34.7933 25.1307 34.4745 25.3538 34.3058 25.6267ZM43.6789 25.8152C43.6789 26.1917 43.9867 26.4997 44.363 26.4997C44.7392 26.4997 45.047 26.1917 45.047 25.8152C45.047 25.4387 44.7392 25.1307 44.363 25.1307C43.9867 25.1307 43.6789 25.4387 43.6789 25.8152ZM53.4835 25.587C53.151 26.1255 53.5824 26.956 54.1944 26.956C54.4306 26.956 54.6235 26.5453 54.6235 26.0433C54.6235 25.081 53.96 24.8154 53.4835 25.587ZM30.4542 26.7278C30.4542 27.1978 30.7529 27.4214 31.2523 27.3256C32.2136 27.1403 32.1529 26.3304 31.1624 26.1241C30.7493 26.0379 30.4542 26.2893 30.4542 26.7278ZM38.0671 26.3349C37.6416 26.7611 38.1556 27.4123 38.9176 27.4123C39.2792 27.4123 39.5747 27.1043 39.5747 26.7278C39.5747 26.0406 38.612 25.7896 38.0671 26.3349ZM18.5976 27.8686C18.5976 28.4568 18.8283 28.7804 19.1676 28.6672C19.4813 28.5627 19.7376 28.2031 19.7376 27.8686C19.7376 27.5341 19.4813 27.1746 19.1676 27.0701C18.8283 26.9569 18.5976 27.2804 18.5976 27.8686ZM50.2913 27.4123C49.9588 27.9508 50.3902 28.7813 51.0022 28.7813C51.2384 28.7813 51.4313 28.3706 51.4313 27.8686C51.4313 26.9062 50.7678 26.6407 50.2913 27.4123ZM27.262 28.5531C27.262 28.9296 27.5699 29.2376 27.9461 29.2376C28.3223 29.2376 28.6301 28.9296 28.6301 28.5531C28.6301 28.1766 28.3223 27.8686 27.9461 27.8686C27.5699 27.8686 27.262 28.1766 27.262 28.5531ZM41.3988 28.5531C41.3988 28.9296 41.7066 29.2376 42.0828 29.2376C42.4591 29.2376 42.7669 28.9296 42.7669 28.5531C42.7669 28.1766 42.4591 27.8686 42.0828 27.8686C41.7066 27.8686 41.3988 28.1766 41.3988 28.5531ZM21.7897 29.6939C21.7897 30.2821 22.0205 30.6056 22.3598 30.4925C22.6735 30.388 22.9298 30.0284 22.9298 29.6939C22.9298 29.3594 22.6735 28.9998 22.3598 28.8953C22.0205 28.7822 21.7897 29.1057 21.7897 29.6939ZM31.4429 29.7605C27.1362 31.8938 25.6222 37.4368 28.258 41.4223C32.7202 48.1694 42.9798 45.0546 42.9798 36.9521C42.9798 30.8511 36.8969 27.0591 31.4429 29.7605ZM47.0991 29.2376C46.7667 29.776 47.1981 30.6066 47.8101 30.6066C48.0463 30.6066 48.2392 30.1959 48.2392 29.6939C48.2392 28.7315 47.5757 28.466 47.0991 29.2376ZM24.7293 31.1026C24.2596 31.8637 25.3162 32.7362 25.9455 32.1065C26.4717 31.5799 26.1425 30.6066 25.4379 30.6066C25.2168 30.6066 24.898 30.8297 24.7293 31.1026ZM31.9322 31.5169C27.6301 34.1417 27.6301 39.8484 31.9322 42.4732C34.832 44.2428 38.5938 43.19 40.489 40.0793C42.9014 36.1207 39.7152 30.6097 35.0145 30.6097C34.1366 30.6097 32.7494 31.0182 31.9322 31.5169ZM43.8823 31.1026C43.4126 31.8637 44.4692 32.7362 45.0985 32.1065C45.6248 31.5799 45.2955 30.6066 44.591 30.6066C44.3698 30.6066 44.051 30.8297 43.8823 31.1026ZM12.6693 33.1163C12.6693 33.5863 12.9679 33.8099 13.4673 33.7141C14.4286 33.5288 14.3679 32.7189 13.3775 32.5126C12.9643 32.4264 12.6693 32.6778 12.6693 33.1163ZM55.8521 32.7234C55.4266 33.1496 55.9405 33.8008 56.7025 33.8008C57.0642 33.8008 57.3597 33.4928 57.3597 33.1163C57.3597 32.4291 56.397 32.1781 55.8521 32.7234ZM16.6216 33.1925C16.0662 33.7483 16.3074 34.7134 17.0015 34.7134C17.3814 34.7134 17.6855 34.3078 17.6855 33.8008C17.6855 32.8918 17.1994 32.6139 16.6216 33.1925ZM52.3434 33.7629C52.3434 34.3233 52.638 34.7134 53.0607 34.7134C53.4857 34.7134 53.7183 34.4031 53.6308 33.9527C53.4091 32.8078 52.3434 32.6509 52.3434 33.7629ZM33.3367 33.887C30.8181 35.1054 31.0388 39.1087 33.6856 40.2057C37.7465 41.8886 40.5561 35.6827 36.5581 33.8601C35.2096 33.245 34.6542 33.2496 33.3367 33.887ZM19.9656 34.4853C19.9656 34.8617 20.2735 35.1698 20.6497 35.1698C21.0259 35.1698 21.3337 34.8617 21.3337 34.4853C21.3337 34.1088 21.0259 33.8008 20.6497 33.8008C20.2735 33.8008 19.9656 34.1088 19.9656 34.4853ZM48.6952 34.4853C48.6952 34.8617 49.003 35.1698 49.3792 35.1698C49.7555 35.1698 50.0633 34.8617 50.0633 34.4853C50.0633 34.1088 49.7555 33.8008 49.3792 33.8008C49.003 33.8008 48.6952 34.1088 48.6952 34.4853ZM23.6946 34.9658C23.9007 35.9569 24.7101 36.0176 24.8953 35.0557C24.991 34.556 24.7676 34.2571 24.2979 34.2571C23.8596 34.2571 23.6084 34.5524 23.6946 34.9658ZM45.1277 34.9658C45.3338 35.9569 46.1433 36.0176 46.3284 35.0557C46.4242 34.556 46.2007 34.2571 45.731 34.2571C45.2928 34.2571 45.0415 34.5524 45.1277 34.9658ZM33.6646 35.8323C32.453 37.293 34.2324 39.5367 35.8125 38.541C37.3913 37.5458 36.829 35.1698 35.0145 35.1698C34.5744 35.1698 33.967 35.4677 33.6646 35.8323ZM23.9052 38.2244C23.3603 38.7697 23.6111 39.733 24.2979 39.733C24.6741 39.733 24.9819 39.4373 24.9819 39.0754C24.9819 38.3129 24.3312 37.7986 23.9052 38.2244ZM45.3384 38.2244C44.7935 38.7697 45.0443 39.733 45.731 39.733C46.1073 39.733 46.4151 39.4373 46.4151 39.0754C46.4151 38.3129 45.7643 37.7986 45.3384 38.2244ZM19.9656 39.5048C19.9656 39.8813 20.2735 40.1893 20.6497 40.1893C21.0259 40.1893 21.3337 39.8813 21.3337 39.5048C21.3337 39.1283 21.0259 38.8203 20.6497 38.8203C20.2735 38.8203 19.9656 39.1283 19.9656 39.5048ZM48.6952 39.5048C48.6952 39.8813 49.003 40.1893 49.3792 40.1893C49.7555 40.1893 50.0633 39.8813 50.0633 39.5048C50.0633 39.1283 49.7555 38.8203 49.3792 38.8203C49.003 38.8203 48.6952 39.1283 48.6952 39.5048ZM16.3982 40.0373C16.6198 41.1822 17.6855 41.3392 17.6855 40.2271C17.6855 39.6668 17.3909 39.2766 16.9682 39.2766C16.5432 39.2766 16.3106 39.5869 16.3982 40.0373ZM52.3434 40.2271C52.3434 41.3392 53.4091 41.1822 53.6308 40.0373C53.7183 39.5869 53.4857 39.2766 53.0607 39.2766C52.638 39.2766 52.3434 39.6668 52.3434 40.2271ZM12.6693 40.8738C12.6693 41.3438 12.9679 41.5674 13.4673 41.4715C14.4286 41.2863 14.3679 40.4763 13.3775 40.27C12.9643 40.1838 12.6693 40.4352 12.6693 40.8738ZM55.8521 40.4809C55.4266 40.9071 55.9405 41.5582 56.7025 41.5582C57.0642 41.5582 57.3597 41.2502 57.3597 40.8738C57.3597 40.1865 56.397 39.9356 55.8521 40.4809ZM24.7293 42.0543C24.2596 42.8154 25.3162 43.6879 25.9455 43.0582C26.4717 42.5316 26.1425 41.5582 25.4379 41.5582C25.2168 41.5582 24.898 41.7814 24.7293 42.0543ZM43.8823 42.0543C43.4126 42.8154 44.4692 43.6879 45.0985 43.0582C45.6248 42.5316 45.2955 41.5582 44.591 41.5582C44.3698 41.5582 44.051 41.7814 43.8823 42.0543ZM21.7897 44.2962C21.7897 44.8843 22.0205 45.2079 22.3598 45.0947C22.6735 44.9902 22.9298 44.6306 22.9298 44.2962C22.9298 43.9617 22.6735 43.6021 22.3598 43.4976C22.0205 43.3844 21.7897 43.708 21.7897 44.2962ZM47.0991 43.8398C46.7667 44.3783 47.1981 45.2088 47.8101 45.2088C48.0463 45.2088 48.2392 44.7981 48.2392 44.2962C48.2392 43.3338 47.5757 43.0682 47.0991 43.8398ZM27.262 45.437C27.262 45.8134 27.5699 46.1214 27.9461 46.1214C28.3223 46.1214 28.6301 45.8134 28.6301 45.437C28.6301 45.0605 28.3223 44.7525 27.9461 44.7525C27.5699 44.7525 27.262 45.0605 27.262 45.437ZM41.3988 45.437C41.3988 45.8134 41.7066 46.1214 42.0828 46.1214C42.4591 46.1214 42.7669 45.8134 42.7669 45.437C42.7669 45.0605 42.4591 44.7525 42.0828 44.7525C41.7066 44.7525 41.3988 45.0605 41.3988 45.437ZM18.5976 46.1214C18.5976 46.7096 18.8283 47.0332 19.1676 46.92C19.4813 46.8155 19.7376 46.4559 19.7376 46.1214C19.7376 45.787 19.4813 45.4274 19.1676 45.3229C18.8283 45.2097 18.5976 45.5332 18.5976 46.1214ZM50.2913 45.6651C49.9588 46.2036 50.3902 47.0341 51.0022 47.0341C51.2384 47.0341 51.4313 46.6234 51.4313 46.1214C51.4313 45.1591 50.7678 44.8935 50.2913 45.6651ZM30.4542 47.2622C30.4542 47.7322 30.7529 47.9558 31.2523 47.86C32.2136 47.6747 32.1529 46.8648 31.1624 46.6585C30.7493 46.5723 30.4542 46.8237 30.4542 47.2622ZM38.0671 46.8693C37.6416 47.2955 38.1556 47.9467 38.9176 47.9467C39.2792 47.9467 39.5747 47.6387 39.5747 47.2622C39.5747 46.575 38.612 46.324 38.0671 46.8693ZM15.4054 47.9467C15.4054 48.5349 15.6361 48.8584 15.9754 48.7453C16.2892 48.6408 16.5455 48.2812 16.5455 47.9467C16.5455 47.6122 16.2892 47.2527 15.9754 47.1482C15.6361 47.035 15.4054 47.3585 15.4054 47.9467ZM34.3058 47.5301C33.8361 48.2912 34.8927 49.1637 35.522 48.534C36.0483 48.0074 35.719 47.0341 35.0145 47.0341C34.7933 47.0341 34.4745 47.2572 34.3058 47.5301ZM53.4835 47.4904C53.151 48.0289 53.5824 48.8594 54.1944 48.8594C54.4306 48.8594 54.6235 48.4487 54.6235 47.9467C54.6235 46.9843 53.96 46.7188 53.4835 47.4904ZM24.9819 48.1749C24.9819 48.5513 25.2897 48.8594 25.666 48.8594C26.0422 48.8594 26.35 48.5513 26.35 48.1749C26.35 47.7984 26.0422 47.4904 25.666 47.4904C25.2897 47.4904 24.9819 47.7984 24.9819 48.1749ZM43.6789 48.1749C43.6789 48.5513 43.9867 48.8594 44.363 48.8594C44.7392 48.8594 45.047 48.5513 45.047 48.1749C45.047 47.7984 44.7392 47.4904 44.363 47.4904C43.9867 47.4904 43.6789 47.7984 43.6789 48.1749ZM29.2895 50.268C28.8198 51.0292 29.8764 51.9016 30.5057 51.2719C31.032 50.7453 30.7027 49.772 29.9982 49.772C29.777 49.772 29.4583 49.9951 29.2895 50.268ZM39.3221 50.268C38.8524 51.0292 39.909 51.9016 40.5383 51.2719C41.0645 50.7453 40.7353 49.772 40.0307 49.772C39.8096 49.772 39.4908 49.9951 39.3221 50.268ZM22.5623 50.5199C22.1368 50.9461 22.6507 51.5973 23.4127 51.5973C23.7744 51.5973 24.0699 51.2893 24.0699 50.9128C24.0699 50.2256 23.1072 49.9746 22.5623 50.5199ZM45.9591 50.9128C45.9591 51.3828 46.2577 51.6064 46.7571 51.5106C47.7184 51.3253 47.6577 50.5153 46.6673 50.3091C46.2541 50.2228 45.9591 50.4743 45.9591 50.9128ZM34.3058 51.1807C33.8361 51.9418 34.8927 52.8143 35.522 52.1846C36.0483 51.658 35.719 50.6846 35.0145 50.6846C34.7933 50.6846 34.4745 50.9078 34.3058 51.1807ZM20.1622 53.4737C19.7691 54.1102 20.9561 54.8956 21.4956 54.3557C21.9338 53.9172 21.5116 52.9662 20.8777 52.9662C20.6565 52.9662 20.3346 53.1944 20.1622 53.4737ZM48.4426 53.4623C48.2743 53.7351 48.3149 54.1372 48.5333 54.3557C49.0728 54.8956 50.2598 54.1102 49.8667 53.4737C49.4686 52.8284 48.837 52.8234 48.4426 53.4623ZM28.1741 54.107C28.1741 54.4835 28.4819 54.7915 28.8581 54.7915C29.2343 54.7915 29.5422 54.4835 29.5422 54.107C29.5422 53.7306 29.2343 53.4226 28.8581 53.4226C28.4819 53.4226 28.1741 53.7306 28.1741 54.107ZM40.4868 54.107C40.4868 54.4835 40.7946 54.7915 41.1708 54.7915C41.547 54.7915 41.8548 54.4835 41.8548 54.107C41.8548 53.7306 41.547 53.4226 41.1708 53.4226C40.7946 53.4226 40.4868 53.7306 40.4868 54.107ZM34.3058 54.8312C33.8361 55.5924 34.8927 56.4648 35.522 55.8351C36.0483 55.3085 35.719 54.3352 35.0145 54.3352C34.7933 54.3352 34.4745 54.5583 34.3058 54.8312ZM27.0974 56.9335C26.5525 57.4788 26.8033 58.4421 27.4901 58.4421C27.8663 58.4421 28.1741 58.1464 28.1741 57.7845C28.1741 57.022 27.5233 56.5077 27.0974 56.9335ZM42.1462 56.9335C41.6013 57.4788 41.8521 58.4421 42.5389 58.4421C42.9151 58.4421 43.2229 58.1464 43.2229 57.7845C43.2229 57.022 42.5722 56.5077 42.1462 56.9335ZM34.3058 58.4818C33.8361 59.2429 34.8927 60.1154 35.522 59.4857C36.0483 58.9591 35.719 57.9858 35.0145 57.9858C34.7933 57.9858 34.4745 58.2089 34.3058 58.4818Z" fill="#F46036"/>
</svg>
